<svg width="40" height="41" viewBox="0 0 40 41" fill="none" xmlns="http://www.w3.org/2000/svg">
<mask id="mask0_2_1796" style="mask-type:luminance" maskUnits="userSpaceOnUse" x="2" y="2" width="36" height="37">
<path d="M2 2.5H38V38.5H2V2.5Z" fill="white"/>
</mask>
<g mask="url(#mask0_2_1796)">
<path d="M34.1695 33.9855C31.2548 29.2153 25.9993 26.0313 20 26.0313M20 26.0313C14.0006 26.0313 8.74515 29.2153 5.83041 33.9855M20 26.0313C24.5822 26.0313 28.2969 22.3166 28.2969 17.7344C28.2969 13.1521 24.5822 9.43752 20 9.43752C15.4177 9.43752 11.7031 13.1521 11.7031 17.7344C11.7031 22.3166 15.4177 26.0313 20 26.0313ZM6.46618 6.37752L5.87752 6.96625C4.29514 8.54856 3.40625 10.6946 3.40625 12.9324V28.0676C3.40625 30.3054 4.29514 32.4514 5.87752 34.0338L6.46618 34.6225C8.04849 36.2048 10.1946 37.0938 12.4324 37.0938H27.5675C29.8053 37.0938 31.9514 36.2048 33.5338 34.6225L34.1225 34.0338C35.7048 32.4514 36.5938 30.3054 36.5938 28.0676V12.9324C36.5938 10.6946 35.7048 8.54856 34.1225 6.96625L33.5338 6.37752C31.9514 4.79521 29.8053 3.90625 27.5675 3.90625H12.4324C10.1946 3.90625 8.04849 4.79521 6.46618 6.37752Z" stroke="#FD5B68" stroke-width="2" stroke-miterlimit="10" stroke-linecap="round" stroke-linejoin="round"/>
</g>
</svg>
