<svg width="40" height="41" viewBox="0 0 40 41" fill="none" xmlns="http://www.w3.org/2000/svg">
<path d="M10.9375 10.0312V6.5525C10.9375 5.16797 12.0703 4.03516 13.4548 4.03516H26.5452C27.9298 4.03516 29.0625 5.16797 29.0625 6.5525V10.0312" stroke="#FD5B68" stroke-width="2" stroke-miterlimit="22.9256" stroke-linecap="round" stroke-linejoin="round"/>
<path d="M37.2656 21.2812V34.6211C37.2656 35.9099 36.2107 36.9648 34.9219 36.9648H5.07812C3.7893 36.9648 2.73438 35.9102 2.73438 34.6211V21.3594" stroke="#FD5B68" stroke-width="2" stroke-miterlimit="22.9256" stroke-linecap="round" stroke-linejoin="round"/>
<path d="M16.875 25.2266C8.61023 24.754 1.17188 22.3906 1.17188 18.1365V12.5898C1.17188 11.299 2.22469 10.2461 3.51562 10.2461H36.4844C37.7752 10.2461 38.8281 11.2991 38.8281 12.5898V18.1365C38.8281 22.4173 31.2958 24.7835 22.9688 25.2352" stroke="#FD5B68" stroke-width="2" stroke-miterlimit="22.9256" stroke-linecap="round" stroke-linejoin="round"/>
<path fill-rule="evenodd" clip-rule="evenodd" d="M17.1094 22.9023H22.8906V25.5977C22.8906 27.0801 21.6777 28.293 20.1953 28.293H19.8047C18.3223 28.293 17.1094 27.0801 17.1094 25.5977V22.9023Z" stroke="#FD5B68" stroke-width="2" stroke-miterlimit="22.9256" stroke-linecap="round" stroke-linejoin="round"/>
</svg>
