<svg width="68" height="68" viewBox="0 0 68 68" fill="none" xmlns="http://www.w3.org/2000/svg">
<g filter="url(#filter0_d_2_2004)">
<rect x="4" y="2" width="60" height="60" rx="8" fill="#FD5B68"/>
<g clip-path="url(#clip0_2_2004)">
<path d="M38.969 42.9313L34.0271 45.7552L29.0853 42.9313C24.3117 40.2035 21.3657 35.127 21.3657 29.629V16.2189L34.0272 13.1969L46.6887 16.2189V29.629C46.6886 35.127 43.7426 40.2035 38.969 42.9313Z" stroke="white" stroke-width="2" stroke-miterlimit="10"/>
<path d="M29.1291 42.975L23.6869 49.9298L21.0416 45.3919L16.0389 43.7911L22.6797 35.719" stroke="white" stroke-width="2" stroke-miterlimit="10"/>
<path d="M38.8992 43.0012L44.315 49.9298L46.9603 45.3919L51.9631 43.7911L45.4032 35.7999" stroke="white" stroke-width="2" stroke-miterlimit="10"/>
<path d="M34.0271 21.6854L36.438 24.9861L40.3221 26.259L37.9279 29.5718L37.9176 33.6592L34.0271 32.4058L30.1366 33.6592L30.1264 29.5718L27.7322 26.259L31.6163 24.9861L34.0271 21.6854Z" stroke="white" stroke-width="2" stroke-miterlimit="10"/>
</g>
</g>
<defs>
<filter id="filter0_d_2_2004" x="0" y="0" width="68" height="68" filterUnits="userSpaceOnUse" color-interpolation-filters="sRGB">
<feFlood flood-opacity="0" result="BackgroundImageFix"/>
<feColorMatrix in="SourceAlpha" type="matrix" values="0 0 0 0 0 0 0 0 0 0 0 0 0 0 0 0 0 0 127 0" result="hardAlpha"/>
<feOffset dy="2"/>
<feGaussianBlur stdDeviation="2"/>
<feComposite in2="hardAlpha" operator="out"/>
<feColorMatrix type="matrix" values="0 0 0 0 0.188235 0 0 0 0 0.588235 0 0 0 0 0.537255 0 0 0 0.15 0"/>
<feBlend mode="normal" in2="BackgroundImageFix" result="effect1_dropShadow_2_2004"/>
<feBlend mode="normal" in="SourceGraphic" in2="effect1_dropShadow_2_2004" result="shape"/>
</filter>
<clipPath id="clip0_2_2004">
<rect width="40" height="40" fill="white" transform="translate(14 12)"/>
</clipPath>
</defs>
</svg>
