<svg width="68" height="68" viewBox="0 0 68 68" fill="none" xmlns="http://www.w3.org/2000/svg">
<g filter="url(#filter0_d_2_1980)">
<rect x="4" y="2" width="60" height="60" rx="8" fill="#FD5B68"/>
<g clip-path="url(#clip0_2_1980)">
<mask id="mask0_2_1980" style="mask-type:luminance" maskUnits="userSpaceOnUse" x="14" y="12" width="40" height="40">
<path d="M54 12H14V52H54V12Z" fill="white"/>
</mask>
<g mask="url(#mask0_2_1980)">
<mask id="mask1_2_1980" style="mask-type:luminance" maskUnits="userSpaceOnUse" x="14" y="12" width="40" height="40">
<path d="M14 12H54V52H14V12Z" fill="white"/>
</mask>
<g mask="url(#mask1_2_1980)">
<path d="M48.2882 23.8056H41.1788C39.453 23.8056 38.0538 22.4064 38.0538 20.6806V13.5712" stroke="white" stroke-width="2" stroke-miterlimit="10" stroke-linejoin="round"/>
<path d="M48.2882 23.8056V47.3125C48.2882 49.0384 46.8891 50.4375 45.1632 50.4375H22.8281C21.1023 50.4375 19.7031 49.0384 19.7031 47.3125V16.6875C19.7031 14.9616 21.1023 13.5625 22.8281 13.5625H38.0973L48.2882 23.8056Z" stroke="white" stroke-width="2" stroke-miterlimit="10"/>
<path d="M24.4688 44.1875H43.6094" stroke="white" stroke-width="2" stroke-miterlimit="10"/>
<path d="M26.0312 39.4219C26.0312 36.4016 28.4797 33.9531 31.5 33.9531C34.5203 33.9531 36.9687 36.4016 36.9687 39.4219" stroke="white" stroke-width="2" stroke-miterlimit="10" stroke-linejoin="round"/>
<path d="M28.4531 30.8281C28.4531 29.1022 29.8523 27.7031 31.5781 27.7031C33.304 27.7031 34.7031 29.1022 34.7031 30.8281C34.7031 32.5541 33.304 33.9531 31.5781 33.9531C29.8523 33.9531 28.4531 32.5541 28.4531 30.8281Z" stroke="white" stroke-width="2" stroke-miterlimit="10" stroke-linecap="round" stroke-linejoin="round"/>
</g>
</g>
</g>
</g>
<defs>
<filter id="filter0_d_2_1980" x="0" y="0" width="68" height="68" filterUnits="userSpaceOnUse" color-interpolation-filters="sRGB">
<feFlood flood-opacity="0" result="BackgroundImageFix"/>
<feColorMatrix in="SourceAlpha" type="matrix" values="0 0 0 0 0 0 0 0 0 0 0 0 0 0 0 0 0 0 127 0" result="hardAlpha"/>
<feOffset dy="2"/>
<feGaussianBlur stdDeviation="2"/>
<feComposite in2="hardAlpha" operator="out"/>
<feColorMatrix type="matrix" values="0 0 0 0 0.188235 0 0 0 0 0.588235 0 0 0 0 0.537255 0 0 0 0.15 0"/>
<feBlend mode="normal" in2="BackgroundImageFix" result="effect1_dropShadow_2_1980"/>
<feBlend mode="normal" in="SourceGraphic" in2="effect1_dropShadow_2_1980" result="shape"/>
</filter>
<clipPath id="clip0_2_1980">
<rect width="40" height="40" fill="white" transform="translate(14 12)"/>
</clipPath>
</defs>
</svg>
