<svg width="46" height="54" viewBox="0 0 46 54" fill="none" xmlns="http://www.w3.org/2000/svg">
<g filter="url(#filter0_d_2041_1076)">
<path d="M34.1879 13.4074L24.1117 7.75043C23.1889 7.23234 22.0613 7.2388 21.1445 7.76743L11.3734 13.4014C10.4443 13.9371 9.87189 14.9279 9.87189 16.0004V33.1337C9.87189 34.1334 10.3698 35.0674 11.1999 35.6245L20.9733 42.1851C21.9735 42.8564 23.2783 42.8645 24.2867 42.2054L34.3606 35.6211C35.2083 35.0671 35.7193 34.1227 35.7193 33.1099V16.0234C35.7193 14.9387 35.1337 13.9384 34.1879 13.4074Z" stroke="url(#paint0_linear_2041_1076)" stroke-width="6" shape-rendering="crispEdges"/>
</g>
<g filter="url(#filter1_i_2041_1076)">
<path d="M33.2966 34.8504L23.7005 41.2955C23.0261 41.7485 22.1447 41.7485 21.4703 41.2955L11.8742 34.8504C11.3211 34.4789 10.9893 33.8564 10.9893 33.1901V15.954C10.9893 15.2473 11.3623 14.593 11.9704 14.233L21.5665 8.55172C22.1949 8.17972 22.976 8.17972 23.6043 8.55172L33.2004 14.233C33.8086 14.593 34.1815 15.2473 34.1815 15.954V33.1901C34.1815 33.8564 33.8497 34.4789 33.2966 34.8504Z" fill="black"/>
</g>
<path d="M33.2966 34.8504L23.7005 41.2955C23.0261 41.7485 22.1447 41.7485 21.4703 41.2955L11.8742 34.8504C11.3211 34.4789 10.9893 33.8564 10.9893 33.1901V15.954C10.9893 15.2473 11.3623 14.593 11.9704 14.233L21.5665 8.55172C22.1949 8.17972 22.976 8.17972 23.6043 8.55172L33.2004 14.233C33.8086 14.593 34.1815 15.2473 34.1815 15.954V33.1901C34.1815 33.8564 33.8497 34.4789 33.2966 34.8504Z" stroke="url(#paint1_linear_2041_1076)" stroke-width="2"/>
<circle cx="35.9158" cy="13.8123" r="1.15384" fill="#121414"/>
<circle cx="35.9159" cy="13.8123" r="0.551837" fill="#9B9D9F"/>
<circle cx="22.5135" cy="6.15384" r="1.15384" fill="#121414"/>
<circle cx="22.5133" cy="6.1534" r="0.551837" fill="#9B9D9F"/>
<circle cx="9.11112" cy="14.7696" r="1.15384" fill="#121414"/>
<circle cx="9.11092" cy="14.7691" r="0.551837" fill="#9B9D9F"/>
<g filter="url(#filter2_i_2041_1076)">
<circle cx="36.8732" cy="25.3003" r="1.15384" fill="#121414"/>
<circle cx="36.8734" cy="25.3004" r="0.551837" fill="#9B9D9F"/>
</g>
<circle cx="36.8732" cy="25.2996" r="0.551837" fill="#9B9D9F"/>
<g filter="url(#filter3_i_2041_1076)">
<circle cx="8.15384" cy="25.3003" r="1.15384" fill="#121414"/>
<circle cx="8.15401" cy="25.3004" r="0.551837" fill="#9B9D9F"/>
</g>
<circle cx="8.15401" cy="25.2996" r="0.551837" fill="#9B9D9F"/>
<circle cx="22.5189" cy="43.8721" r="1.15384" fill="#121414"/>
<circle cx="22.5186" cy="43.8722" r="0.551837" fill="#9B9D9F"/>
<g filter="url(#filter4_f_2041_1076)">
<path d="M12.8246 33.5315L21.4739 39.3294C22.1476 39.781 23.0274 39.781 23.7011 39.3294L32.3504 33.5315C32.9043 33.1602 33.2368 32.5371 33.2368 31.8702V16.2437C33.2368 15.5445 32.8717 14.8961 32.2738 14.5336L23.6246 9.28834C22.9872 8.90182 22.1878 8.90182 21.5504 9.28834L12.9012 14.5336C12.3033 14.8961 11.9382 15.5445 11.9382 16.2437V31.8702C11.9382 32.5371 12.2707 33.1602 12.8246 33.5315Z" fill="#65757E"/>
<path d="M12.8246 33.5315L21.4739 39.3294C22.1476 39.781 23.0274 39.781 23.7011 39.3294L32.3504 33.5315C32.9043 33.1602 33.2368 32.5371 33.2368 31.8702V16.2437C33.2368 15.5445 32.8717 14.8961 32.2738 14.5336L23.6246 9.28834C22.9872 8.90182 22.1878 8.90182 21.5504 9.28834L12.9012 14.5336C12.3033 14.8961 11.9382 15.5445 11.9382 16.2437V31.8702C11.9382 32.5371 12.2707 33.1602 12.8246 33.5315Z" stroke="#050A0D" stroke-width="0.3"/>
</g>
<g filter="url(#filter5_d_2041_1076)">
<line y1="-0.1" x2="25.0311" y2="-0.1" transform="matrix(-0.00450234 0.99999 0.999992 0.00387302 26.6834 12.3162)" stroke="#050A0D" stroke-width="0.2"/>
<line y1="-0.1" x2="25.653" y2="-0.1" transform="matrix(-0.00435627 0.999991 0.999993 0.00374738 26.1246 12.0051)" stroke="#050A0D" stroke-width="0.2"/>
<line y1="-0.1" x2="26.4311" y2="-0.1" transform="matrix(-0.00845607 0.999964 0.999974 0.00727418 25.454 11.7456)" stroke="#050A0D" stroke-width="0.2"/>
<line y1="-0.1" x2="27.4157" y2="-0.1" transform="matrix(-0.00815238 0.999967 0.999975 0.00701292 24.6718 11.28)" stroke="#050A0D" stroke-width="0.2"/>
<line y1="-0.1" x2="28.2957" y2="-0.1" transform="matrix(0 1 1 0 23.8895 10.8132)" stroke="#050A0D" stroke-width="0.2"/>
<line y1="-0.1" x2="28.8139" y2="-0.1" transform="matrix(0 1 1 0 23.3308 10.502)" stroke="#050A0D" stroke-width="0.2"/>
<line y1="-0.1" x2="29.4358" y2="-0.1" transform="matrix(0 1 1 0 22.772 10.2947)" stroke="#050A0D" stroke-width="0.2"/>
<line y1="-0.1" x2="28.8139" y2="-0.1" transform="matrix(0 1 1 0 22.2133 10.502)" stroke="#050A0D" stroke-width="0.2"/>
<line y1="-0.1" x2="28.192" y2="-0.1" transform="matrix(0 1 1 0 21.5428 10.8132)" stroke="#050A0D" stroke-width="0.2"/>
<line y1="-0.1" x2="27.1558" y2="-0.1" transform="matrix(0.00409954 0.999992 0.999994 -0.00352653 20.7606 11.4351)" stroke="#050A0D" stroke-width="0.2"/>
<line y1="-0.1" x2="26.4311" y2="-0.1" transform="matrix(0.00852292 0.999964 0.999973 -0.00733168 19.9782 11.7456)" stroke="#050A0D" stroke-width="0.2"/>
<line y1="-0.1" x2="25.6537" y2="-0.1" transform="matrix(0.008609 0.999963 0.999973 -0.00740573 19.4196 12.2119)" stroke="#050A0D" stroke-width="0.2"/>
<line y1="-0.1" x2="25.1355" y2="-0.1" transform="matrix(0.00888277 0.999961 0.999972 -0.007534 18.8607 12.4192)" stroke="#050A0D" stroke-width="0.2"/>
<line y1="-0.1" x2="24.3053" y2="-0.1" transform="matrix(3.99194e-05 1 1 -3.43396e-05 18.4134 12.7297)" stroke="#050A0D" stroke-width="0.2"/>
<line y1="-0.1" x2="23.6318" y2="-0.1" transform="matrix(-0.00464731 0.999989 0.999992 0.00399774 17.8551 12.9893)" stroke="#050A0D" stroke-width="0.2"/>
<line y1="-0.1" x2="23.01" y2="-0.1" transform="matrix(-0.00485665 0.999988 0.999991 0.00417781 17.4078 13.2488)" stroke="#050A0D" stroke-width="0.2"/>
<line y1="-0.1" x2="22.5954" y2="-0.1" transform="matrix(-0.00494576 0.999988 0.999991 0.00425447 16.9365 13.636)" stroke="#050A0D" stroke-width="0.2"/>
<path d="M16.2885 13.8704L16.1793 35.6363" stroke="#050A0D" stroke-width="0.2"/>
<line y1="-0.1" x2="21.0925" y2="-0.1" transform="matrix(-0.00534776 0.999986 0.999989 0.00460028 15.8432 14.1819)" stroke="#050A0D" stroke-width="0.2"/>
<line y1="-0.1" x2="20.4706" y2="-0.1" transform="matrix(-0.00545643 0.999985 0.999989 0.00469377 15.2845 14.4924)" stroke="#050A0D" stroke-width="0.2"/>
<line y1="-0.1" x2="19.6411" y2="-0.1" transform="matrix(2.77815e-06 1 1 -2.38983e-06 14.6141 14.9065)" stroke="#050A0D" stroke-width="0.2"/>
<line y1="-0.1" x2="18.916" y2="-0.1" transform="matrix(-0.00580079 0.999983 0.999987 0.00499 14.0555 15.2178)" stroke="#050A0D" stroke-width="0.2"/>
<line y1="-0.1" x2="18.1905" y2="-0.1" transform="matrix(-0.00614041 0.999981 0.999986 0.00528214 13.3845 15.6323)" stroke="#050A0D" stroke-width="0.2"/>
<line y1="-0.1" x2="17.4131" y2="-0.1" transform="matrix(-0.00643681 0.999979 0.999985 0.00553712 12.8259 16.0471)" stroke="#050A0D" stroke-width="0.2"/>
<line y1="-0.1" x2="24.461" y2="-0.1" transform="matrix(-0.00429636 0.999991 0.999994 0.00359284 27.1229 12.575)" stroke="#050A0D" stroke-width="0.2"/>
<line y1="-0.1" x2="23.4988" y2="-0.1" transform="matrix(-3.81019e-05 1 -1 -3.16387e-05 27.5544 13.0664)" stroke="#050A0D" stroke-width="0.2"/>
<line y1="-0.1" x2="23.4988" y2="-0.1" transform="matrix(-3.81019e-05 1 -1 -3.16387e-05 27.2424 13.145)" stroke="#050A0D" stroke-width="0.2"/>
<line y1="-0.1" x2="22.8109" y2="-0.1" transform="matrix(0.00473011 0.999989 -0.999992 0.00392776 28.0941 13.46)" stroke="#050A0D" stroke-width="0.2"/>
<line y1="-0.1" x2="22.2305" y2="-0.1" transform="matrix(0.0131737 0.999913 0.999936 -0.0113326 28.8495 13.46)" stroke="#050A0D" stroke-width="0.2"/>
<line y1="-0.1" x2="21.3248" y2="-0.1" transform="matrix(0.0148182 0.99989 0.999919 -0.0127473 29.4965 13.9514)" stroke="#050A0D" stroke-width="0.2"/>
<line y1="-0.1" x2="20.419" y2="-0.1" transform="matrix(0.0164189 0.999865 0.9999 -0.0141244 30.0363 14.4434)" stroke="#050A0D" stroke-width="0.2"/>
<line y1="-0.1" x2="19.8117" y2="-0.1" transform="matrix(0.0122536 0.999925 0.999944 -0.0105411 30.5758 14.7375)" stroke="#050A0D" stroke-width="0.2"/>
<line y1="-0.1" x2="19.2049" y2="-0.1" transform="matrix(0.00811414 0.999967 0.999976 -0.00698003 31.2234 15.033)" stroke="#050A0D" stroke-width="0.2"/>
<line y1="-0.1" x2="18.4971" y2="-0.1" transform="matrix(0.0154168 0.999881 0.999912 -0.0132623 31.7628 15.3276)" stroke="#050A0D" stroke-width="0.2"/>
<line y1="-0.1" x2="17.6897" y2="-0.1" transform="matrix(0.0174283 0.999848 0.999887 -0.0149928 32.4099 15.7212)" stroke="#050A0D" stroke-width="0.2"/>
<line y1="-0.1" x2="17.1022" y2="-0.1" transform="matrix(0.00653433 0.999979 0.999984 -0.00562101 33.0534 16.0476)" stroke="#050A0D" stroke-width="0.2"/>
</g>
<g filter="url(#filter6_d_2041_1076)">
<ellipse cx="3.77373" cy="3.63346" rx="3.77373" ry="3.63346" transform="matrix(-1 0 0 1 26.0352 13.2842)" fill="url(#paint2_linear_2041_1076)"/>
<ellipse cx="2.72204" cy="2.64811" rx="2.72204" ry="2.64811" transform="matrix(-1 0 0 1 24.9214 14.1467)" fill="white"/>
<ellipse cx="2.21057" cy="2.09819" rx="2.21057" ry="2.09819" transform="matrix(-1 0 0 1 24.3896 14.8193)" fill="url(#paint3_linear_2041_1076)"/>
</g>
<g filter="url(#filter7_d_2041_1076)">
<path d="M30.5423 20.4351L23.3191 23.7902L23.2742 35.0858V35.4959C23.4537 35.4213 23.5883 35.3468 23.7229 35.2722L23.7229 35.2722L25.4726 34.2284V25.2441L28.1196 23.8113L28.1196 32.2153V32.6627L28.658 32.439L30.8113 31.4744L30.5423 20.9082L30.5423 20.4351Z" fill="#E6EFF0"/>
<path d="M30.5423 20.4351L23.3191 23.7902L23.2742 35.0858V35.4959C23.4537 35.4213 23.5883 35.3468 23.7229 35.2722L23.7229 35.2722L25.4726 34.2284V25.2441L28.1196 23.8113L28.1196 32.2153V32.6627L28.658 32.439L30.8113 31.4744L30.5423 20.9082L30.5423 20.4351Z" stroke="#E6EFF0"/>
</g>
<g filter="url(#filter8_d_2041_1076)">
<path d="M30.2273 20.9478L23.3514 24.2806L23.3092 35.1031V35.496C23.4781 35.4246 23.6048 35.3532 23.7315 35.2817L25.5553 34.2738V24.9298L28.4753 23.3528V32.1054L30.4519 31.238L30.2273 21.3814V20.9478Z" fill="url(#paint4_linear_2041_1076)"/>
</g>
<path d="M30.6311 20.3169L30.2268 20.9477L30.4514 31.238L30.9006 31.5139L30.6311 20.3169Z" fill="#2B3F4A"/>
<path d="M30.2981 31.2272L29.3054 31.6766C28.7577 31.9245 28.2957 32.3307 27.9796 32.8422L30.916 31.5413C30.9069 31.3841 30.7972 31.2519 30.6445 31.2143L30.5875 31.2003C30.4911 31.1765 30.3891 31.186 30.2981 31.2272Z" fill="#2D373D"/>
<path d="M25.5553 24.9298V26.3098L25.6901 25.7578C25.8054 25.3781 26.0623 25.0573 26.4075 24.8616L28.026 23.9442L28.4753 23.3528L25.5553 24.9298Z" fill="#384853"/>
<path d="M28.4752 23.3528L28.3776 23.4507C28.234 23.5947 28.1152 23.7614 28.026 23.9442V32.8151L28.2955 32.4208L28.5201 32.0266L28.4752 23.3528Z" fill="#E6EFF0"/>
<g filter="url(#filter9_d_2041_1076)">
<path d="M14.0913 20.4351L21.3147 23.7902L21.3596 35.0858V35.4959C21.1801 35.4213 21.0455 35.3468 20.9109 35.2722L20.9109 35.2722L19.1611 34.2284V25.2441L16.514 23.8113L16.514 32.2153V32.6627L15.9756 32.439L13.8223 31.4744L14.0913 20.9082L14.0913 20.4351Z" fill="#E6EFF0"/>
<path d="M14.0913 20.4351L21.3147 23.7902L21.3596 35.0858V35.4959C21.1801 35.4213 21.0455 35.3468 20.9109 35.2722L20.9109 35.2722L19.1611 34.2284V25.2441L16.514 23.8113L16.514 32.2153V32.6627L15.9756 32.439L13.8223 31.4744L14.0913 20.9082L14.0913 20.4351Z" stroke="#E6EFF0"/>
</g>
<g filter="url(#filter10_d_2041_1076)">
<path d="M14.4064 20.9478L21.2824 24.2806L21.3246 35.1031V35.496C21.1557 35.4246 21.0291 35.3532 20.9024 35.2817L19.0785 34.2738V24.9298L16.1584 23.3528V32.1054L14.1818 31.238L14.4064 21.3814V20.9478Z" fill="url(#paint5_linear_2041_1076)"/>
</g>
<path d="M14.0022 20.3169L14.4066 20.9477L14.1819 31.238L13.7327 31.5139L14.0022 20.3169Z" fill="#2B3F4A"/>
<path d="M14.3356 31.2272L15.3283 31.6766C15.876 31.9245 16.338 32.3307 16.6542 32.8422L13.7176 31.5413C13.7267 31.3841 13.8365 31.2519 13.9892 31.2143L14.0462 31.2003C14.1426 31.1765 14.2446 31.186 14.3356 31.2272Z" fill="#2D373D"/>
<path d="M19.0784 24.9298V26.3098L18.9436 25.7578C18.8282 25.3781 18.5714 25.0573 18.2262 24.8616L16.6076 23.9442L16.1583 23.3528L19.0784 24.9298Z" fill="#74797B"/>
<path d="M16.1577 23.3528L16.2553 23.4507C16.3989 23.5947 16.5177 23.7614 16.6069 23.9442V32.8151L16.3374 32.4208L16.1128 32.0266L16.1577 23.3528Z" fill="#74797B"/>
<defs>
<filter id="filter0_d_2041_1076" x="0.571887" y="0.0664549" width="44.4474" height="53.9276" filterUnits="userSpaceOnUse" color-interpolation-filters="sRGB">
<feFlood flood-opacity="0" result="BackgroundImageFix"/>
<feColorMatrix in="SourceAlpha" type="matrix" values="0 0 0 0 0 0 0 0 0 0 0 0 0 0 0 0 0 0 127 0" result="hardAlpha"/>
<feOffset dy="2"/>
<feGaussianBlur stdDeviation="3.15"/>
<feComposite in2="hardAlpha" operator="out"/>
<feColorMatrix type="matrix" values="0 0 0 0 0 0 0 0 0 0 0 0 0 0 0 0 0 0 1 0"/>
<feBlend mode="normal" in2="BackgroundImageFix" result="effect1_dropShadow_2041_1076"/>
<feBlend mode="normal" in="SourceGraphic" in2="effect1_dropShadow_2041_1076" result="shape"/>
</filter>
<filter id="filter1_i_2041_1076" x="9.98932" y="7.27271" width="25.1922" height="35.3625" filterUnits="userSpaceOnUse" color-interpolation-filters="sRGB">
<feFlood flood-opacity="0" result="BackgroundImageFix"/>
<feBlend mode="normal" in="SourceGraphic" in2="BackgroundImageFix" result="shape"/>
<feColorMatrix in="SourceAlpha" type="matrix" values="0 0 0 0 0 0 0 0 0 0 0 0 0 0 0 0 0 0 127 0" result="hardAlpha"/>
<feOffset dx="61" dy="10"/>
<feGaussianBlur stdDeviation="9.6"/>
<feComposite in2="hardAlpha" operator="arithmetic" k2="-1" k3="1"/>
<feColorMatrix type="matrix" values="0 0 0 0 0 0 0 0 0 0 0 0 0 0 0 0 0 0 1 0"/>
<feBlend mode="normal" in2="shape" result="effect1_innerShadow_2041_1076"/>
</filter>
<filter id="filter2_i_2041_1076" x="33.7194" y="24.1465" width="4.30768" height="2.30762" filterUnits="userSpaceOnUse" color-interpolation-filters="sRGB">
<feFlood flood-opacity="0" result="BackgroundImageFix"/>
<feBlend mode="normal" in="SourceGraphic" in2="BackgroundImageFix" result="shape"/>
<feColorMatrix in="SourceAlpha" type="matrix" values="0 0 0 0 0 0 0 0 0 0 0 0 0 0 0 0 0 0 127 0" result="hardAlpha"/>
<feOffset dx="-2"/>
<feGaussianBlur stdDeviation="4.35"/>
<feComposite in2="hardAlpha" operator="arithmetic" k2="-1" k3="1"/>
<feColorMatrix type="matrix" values="0 0 0 0 0 0 0 0 0 0 0 0 0 0 0 0 0 0 1 0"/>
<feBlend mode="normal" in2="shape" result="effect1_innerShadow_2041_1076"/>
</filter>
<filter id="filter3_i_2041_1076" x="5" y="24.1465" width="4.30768" height="2.30762" filterUnits="userSpaceOnUse" color-interpolation-filters="sRGB">
<feFlood flood-opacity="0" result="BackgroundImageFix"/>
<feBlend mode="normal" in="SourceGraphic" in2="BackgroundImageFix" result="shape"/>
<feColorMatrix in="SourceAlpha" type="matrix" values="0 0 0 0 0 0 0 0 0 0 0 0 0 0 0 0 0 0 127 0" result="hardAlpha"/>
<feOffset dx="-2"/>
<feGaussianBlur stdDeviation="4.35"/>
<feComposite in2="hardAlpha" operator="arithmetic" k2="-1" k3="1"/>
<feColorMatrix type="matrix" values="0 0 0 0 0 0 0 0 0 0 0 0 0 0 0 0 0 0 1 0"/>
<feBlend mode="normal" in2="shape" result="effect1_innerShadow_2041_1076"/>
</filter>
<filter id="filter4_f_2041_1076" x="7.78821" y="4.84839" width="29.5986" height="38.9697" filterUnits="userSpaceOnUse" color-interpolation-filters="sRGB">
<feFlood flood-opacity="0" result="BackgroundImageFix"/>
<feBlend mode="normal" in="SourceGraphic" in2="BackgroundImageFix" result="shape"/>
<feGaussianBlur stdDeviation="2" result="effect1_foregroundBlur_2041_1076"/>
</filter>
<filter id="filter5_d_2041_1076" x="9.71379" y="10.2947" width="26.2514" height="36.2358" filterUnits="userSpaceOnUse" color-interpolation-filters="sRGB">
<feFlood flood-opacity="0" result="BackgroundImageFix"/>
<feColorMatrix in="SourceAlpha" type="matrix" values="0 0 0 0 0 0 0 0 0 0 0 0 0 0 0 0 0 0 127 0" result="hardAlpha"/>
<feOffset dy="4"/>
<feGaussianBlur stdDeviation="1.4"/>
<feComposite in2="hardAlpha" operator="out"/>
<feColorMatrix type="matrix" values="0 0 0 0 0 0 0 0 0 0 0 0 0 0 0 0 0 0 0.09 0"/>
<feBlend mode="normal" in2="BackgroundImageFix" result="effect1_dropShadow_2041_1076"/>
<feBlend mode="normal" in="SourceGraphic" in2="effect1_dropShadow_2041_1076" result="shape"/>
</filter>
<filter id="filter6_d_2041_1076" x="17.4877" y="13.2842" width="15.5475" height="17.2668" filterUnits="userSpaceOnUse" color-interpolation-filters="sRGB">
<feFlood flood-opacity="0" result="BackgroundImageFix"/>
<feColorMatrix in="SourceAlpha" type="matrix" values="0 0 0 0 0 0 0 0 0 0 0 0 0 0 0 0 0 0 127 0" result="hardAlpha"/>
<feOffset dx="3" dy="6"/>
<feGaussianBlur stdDeviation="2"/>
<feComposite in2="hardAlpha" operator="out"/>
<feColorMatrix type="matrix" values="0 0 0 0 0 0 0 0 0 0 0 0 0 0 0 0 0 0 0.93 0"/>
<feBlend mode="normal" in2="BackgroundImageFix" result="effect1_dropShadow_2041_1076"/>
<feBlend mode="normal" in="SourceGraphic" in2="effect1_dropShadow_2041_1076" result="shape"/>
</filter>
<filter id="filter7_d_2041_1076" x="18.7742" y="19.6516" width="16.5453" height="24.5935" filterUnits="userSpaceOnUse" color-interpolation-filters="sRGB">
<feFlood flood-opacity="0" result="BackgroundImageFix"/>
<feColorMatrix in="SourceAlpha" type="matrix" values="0 0 0 0 0 0 0 0 0 0 0 0 0 0 0 0 0 0 127 0" result="hardAlpha"/>
<feOffset dy="4"/>
<feGaussianBlur stdDeviation="2"/>
<feComposite in2="hardAlpha" operator="out"/>
<feColorMatrix type="matrix" values="0 0 0 0 0 0 0 0 0 0 0 0 0 0 0 0 0 0 0.86 0"/>
<feBlend mode="normal" in2="BackgroundImageFix" result="effect1_dropShadow_2041_1076"/>
<feBlend mode="normal" in="SourceGraphic" in2="effect1_dropShadow_2041_1076" result="shape"/>
</filter>
<filter id="filter8_d_2041_1076" x="19.3092" y="20.9478" width="15.1426" height="22.5483" filterUnits="userSpaceOnUse" color-interpolation-filters="sRGB">
<feFlood flood-opacity="0" result="BackgroundImageFix"/>
<feColorMatrix in="SourceAlpha" type="matrix" values="0 0 0 0 0 0 0 0 0 0 0 0 0 0 0 0 0 0 127 0" result="hardAlpha"/>
<feOffset dy="4"/>
<feGaussianBlur stdDeviation="2"/>
<feComposite in2="hardAlpha" operator="out"/>
<feColorMatrix type="matrix" values="0 0 0 0 0 0 0 0 0 0 0 0 0 0 0 0 0 0 0.86 0"/>
<feBlend mode="normal" in2="BackgroundImageFix" result="effect1_dropShadow_2041_1076"/>
<feBlend mode="normal" in="SourceGraphic" in2="effect1_dropShadow_2041_1076" result="shape"/>
</filter>
<filter id="filter9_d_2041_1076" x="9.31396" y="19.6516" width="16.5456" height="24.5935" filterUnits="userSpaceOnUse" color-interpolation-filters="sRGB">
<feFlood flood-opacity="0" result="BackgroundImageFix"/>
<feColorMatrix in="SourceAlpha" type="matrix" values="0 0 0 0 0 0 0 0 0 0 0 0 0 0 0 0 0 0 127 0" result="hardAlpha"/>
<feOffset dy="4"/>
<feGaussianBlur stdDeviation="2"/>
<feComposite in2="hardAlpha" operator="out"/>
<feColorMatrix type="matrix" values="0 0 0 0 0 0 0 0 0 0 0 0 0 0 0 0 0 0 0.86 0"/>
<feBlend mode="normal" in2="BackgroundImageFix" result="effect1_dropShadow_2041_1076"/>
<feBlend mode="normal" in="SourceGraphic" in2="effect1_dropShadow_2041_1076" result="shape"/>
</filter>
<filter id="filter10_d_2041_1076" x="10.1818" y="20.9478" width="15.1429" height="22.5483" filterUnits="userSpaceOnUse" color-interpolation-filters="sRGB">
<feFlood flood-opacity="0" result="BackgroundImageFix"/>
<feColorMatrix in="SourceAlpha" type="matrix" values="0 0 0 0 0 0 0 0 0 0 0 0 0 0 0 0 0 0 127 0" result="hardAlpha"/>
<feOffset dy="4"/>
<feGaussianBlur stdDeviation="2"/>
<feComposite in2="hardAlpha" operator="out"/>
<feColorMatrix type="matrix" values="0 0 0 0 0 0 0 0 0 0 0 0 0 0 0 0 0 0 0.86 0"/>
<feBlend mode="normal" in2="BackgroundImageFix" result="effect1_dropShadow_2041_1076"/>
<feBlend mode="normal" in="SourceGraphic" in2="effect1_dropShadow_2041_1076" result="shape"/>
</filter>
<linearGradient id="paint0_linear_2041_1076" x1="12.1694" y1="12.0724" x2="33.0986" y2="39.9986" gradientUnits="userSpaceOnUse">
<stop stop-color="#E6E6E6"/>
<stop offset="1" stop-color="#132630"/>
</linearGradient>
<linearGradient id="paint1_linear_2041_1076" x1="18.8659" y1="11.5427" x2="27.3074" y2="27.8217" gradientUnits="userSpaceOnUse">
<stop stop-color="#384A4E"/>
<stop offset="1" stop-color="#E7EAE8"/>
</linearGradient>
<linearGradient id="paint2_linear_2041_1076" x1="3.77373" y1="0" x2="3.77373" y2="7.26691" gradientUnits="userSpaceOnUse">
<stop stop-color="#153144"/>
<stop offset="1" stop-color="#111617"/>
</linearGradient>
<linearGradient id="paint3_linear_2041_1076" x1="3.77936" y1="3.35711" x2="1.74222" y2="0.933885" gradientUnits="userSpaceOnUse">
<stop stop-color="#235267"/>
<stop offset="0.285" stop-color="#326680"/>
<stop offset="1" stop-color="white"/>
</linearGradient>
<linearGradient id="paint4_linear_2041_1076" x1="26.8805" y1="20.9478" x2="26.8805" y2="35.496" gradientUnits="userSpaceOnUse">
<stop stop-color="#CED0D1"/>
<stop offset="1" stop-color="#6B7274"/>
</linearGradient>
<linearGradient id="paint5_linear_2041_1076" x1="14.1502" y1="21.7363" x2="21.08" y2="38.5979" gradientUnits="userSpaceOnUse">
<stop stop-color="#F9FBFB"/>
<stop offset="1" stop-color="#949595"/>
</linearGradient>
</defs>
</svg>
