<svg width="52" height="52" viewBox="0 0 52 52" xmlns="http://www.w3.org/2000/svg" class="styled__BulletIcon-sc-1ofrz6k-1 kKFYKr"><path d="M10.8333 19.7743C9.15808 19.7743 7.8 21.1323 7.8 22.8076V29.1925C7.8 30.8677 9.15807 32.2258 10.8333 32.2258H15.8889L23.3971 39.9309C24.3467 40.9055 26 40.2332 26 38.8725V13.1276C26 11.7669 24.3467 11.0946 23.3971 12.0692L15.8889 19.7743H10.8333ZM35.1 26C35.1 22.3268 33.0373 19.1725 30.0444 17.6368V34.3426C33.0373 32.8276 35.1 29.6733 35.1 26ZM30.0444 7.80005V12.0751C35.8887 13.8598 40.1556 19.4215 40.1556 26C40.1556 32.5786 35.8887 38.1403 30.0444 39.925V44.2001C38.1536 42.3116 44.2 34.8821 44.2 26C44.2 17.118 38.1536 9.68853 30.0444 7.80005Z"></path></svg>