<svg width="52" height="52" viewBox="0 0 52 52" xmlns="http://www.w3.org/2000/svg" class="styled__BulletIcon-sc-1ofrz6k-1 iSQORf"><path d="M26 5V13" stroke-width="3" stroke-linecap="round"></path><path d="M9 11L14.6569 16.6569" stroke-width="3" stroke-linecap="round"></path><path d="M43 11L37.3431 16.6569" stroke-width="3" stroke-linecap="round"></path><path fill-rule="evenodd" clip-rule="evenodd" stroke-width="0" d="M17.3039 23.1323C17.7106 21.3021 19.3339 20 21.2087 20H30.7913C32.6661 20 34.2894 21.3021 34.6961 23.1323L37.7296 36.7831C37.8684 37.4076 37.3931 38 36.7534 38H29V32C29 30.3431 27.6569 29 26 29C24.3432 29 23 30.3431 23 32V38H15.2466C14.6069 38 14.1317 37.4076 14.2704 36.7831L17.3039 23.1323ZM13 41C11.8954 41 11 41.8954 11 43V46C11 47.1046 11.8954 48 13 48H39C40.1046 48 41 47.1046 41 46V43C41 41.8954 40.1046 41 39 41H13Z"></path></svg>