<svg width="53" height="52" viewBox="0 0 53 52" xmlns="http://www.w3.org/2000/svg" class="styled__BulletIcon-sc-1ofrz6k-1 kKFYKr"><path fill-rule="evenodd" clip-rule="evenodd" d="M21.6204 12.7313C22.3047 12.0722 23.4077 12.798 23.0732 13.6872L22.0389 16.4365C21.9708 16.4906 21.9085 16.5521 21.8533 16.6204L16.6113 23.1023C15.3853 22.8456 14.1582 23.5894 13.83 24.8143C13.6022 25.6642 13.8652 26.53 14.4452 27.1109L13.9927 28.7994L11.6354 31.07C10.9511 31.7291 9.84811 31.0033 10.1826 30.1141L11.6781 26.1388C11.8949 25.5625 11.4761 24.9452 10.8605 24.9337L6.61393 24.8541C5.66406 24.8363 5.39731 23.5432 6.2626 23.1509L10.131 21.3975C10.6918 21.1433 10.8322 20.4106 10.405 19.9671L7.45853 16.9081C6.79946 16.2239 7.52524 15.1209 8.41444 15.4554L12.3897 16.9509C12.966 17.1676 13.5833 16.7488 13.5949 16.1332L13.6744 11.8867C13.6922 10.9368 14.9854 10.6701 15.3776 11.5353L17.1311 15.4038C17.3853 15.9646 18.118 16.1049 18.5614 15.6778L21.6204 12.7313ZM24.7498 18.4462C24.4167 18.357 24.0648 18.3662 23.7369 18.4729C23.4089 18.5796 23.119 18.7791 22.9021 19.0473L18.11 24.9729L16.9474 24.6614C16.4719 24.534 15.9831 24.8162 15.8557 25.2917C15.7282 25.7673 16.0104 26.2561 16.486 26.3835L17.3471 26.6142L15.7346 32.6322L15.732 32.6417L15.0398 35.2249C14.9174 35.6816 14.9815 36.1683 15.2179 36.5778C15.4543 36.9873 15.8437 37.2861 16.3005 37.4084L18.8836 38.1006C19.3404 38.223 19.827 38.1589 20.2365 37.9225C20.646 37.6861 20.9448 37.2967 21.0672 36.8399L21.5286 35.1177L31.8613 37.8864L31.3998 39.6086C31.2774 40.0653 31.3415 40.552 31.5779 40.9615C31.8144 41.371 32.2038 41.6698 32.6605 41.7922L35.2437 42.4843C35.7004 42.6067 36.187 42.5426 36.5965 42.3062C37.006 42.0698 37.3048 41.6804 37.4272 41.2236L38.1172 38.6486L38.1194 38.6404L39.7345 32.6129L40.5955 32.8436C41.071 32.9711 41.5598 32.6888 41.6873 32.2133C41.8147 31.7378 41.5325 31.2489 41.0569 31.1215L39.8944 30.81L38.7072 23.2822C38.6535 22.9416 38.5021 22.6238 38.2714 22.3674C38.0407 22.1111 37.7406 21.9271 37.4075 21.8379L24.7498 18.4462ZM16.7619 35.6863L17.2234 33.9641L19.8065 34.6563L19.3451 36.3785L16.7619 35.6863ZM33.1219 40.07L33.5834 38.3478L36.1666 39.04L35.7051 40.7622L33.1219 40.07ZM36.946 23.5599L38.0098 30.305L19.9945 25.4778L24.2883 20.1683L36.946 23.5599ZM31.8668 33.2734C32.0367 32.6393 32.6884 32.263 33.3225 32.4329L35.0446 32.8944C35.6787 33.0643 36.0549 33.716 35.8851 34.3501C35.7152 34.9841 35.0634 35.3604 34.4294 35.1905L32.7072 34.7291C32.0732 34.5592 31.6969 33.9075 31.8668 33.2734ZM19.8121 30.0434C19.982 29.4093 20.6338 29.033 21.2678 29.2029L22.9899 29.6644C23.624 29.8343 24.0003 30.486 23.8304 31.1201C23.6605 31.7541 23.0087 32.1304 22.3747 31.9605L20.6526 31.4991C20.0185 31.3292 19.6422 30.6774 19.8121 30.0434Z"></path></svg>