<svg width="53" height="52" viewBox="0 0 53 52" xmlns="http://www.w3.org/2000/svg" class="styled__BulletIcon-sc-1ofrz6k-1 kKFYKr"><path fill-rule="evenodd" clip-rule="evenodd" d="M25.389 10C25.0933 10 24.8269 10.2044 24.7153 10.5172L22.4311 15.9237C22.3398 16.1796 22.3664 16.4707 22.5014 16.6997C22.6366 16.9291 22.8628 17.0666 23.1048 17.0666H28.9851C29.2271 17.0666 29.4533 16.9291 29.5886 16.6997C29.7235 16.4707 29.7499 16.1797 29.6586 15.9237L27.3744 10.5172C27.2628 10.2044 26.9967 10 26.7009 10H25.389Z"></path><path fill-rule="evenodd" clip-rule="evenodd" d="M21.7973 20.0828C21.5013 20.0828 21.235 20.2876 21.1236 20.6006L20.0027 23.7499L20.0024 23.7502L18.8397 27.0114H18.8394C18.7481 27.2673 18.7745 27.5584 18.9097 27.7877C19.0446 28.0171 19.2709 28.1546 19.5129 28.1546H32.5806C32.8228 28.1546 33.0488 28.0171 33.184 27.7877C33.3192 27.5584 33.3454 27.2677 33.2543 27.0117L32.0915 23.7505V23.7502L30.9706 20.6009L30.9704 20.6006C30.859 20.2876 30.5927 20.0828 30.2967 20.0828L21.7973 20.0828Z"></path><path fill-rule="evenodd" clip-rule="evenodd" d="M18.2012 31.1713C17.9054 31.1713 17.6391 31.3761 17.5275 31.6888L15.3991 36.6629H10.7716C10.3701 36.6629 10.0447 37.0348 10.0447 37.4931V41.1698C10.0447 41.6282 10.3701 42 10.7716 42H41.3175C41.7192 42 42.0447 41.6285 42.0447 41.1698V37.4931C42.0447 37.0345 41.7192 36.6629 41.3175 36.6629H36.69L34.5616 31.6888C34.45 31.3761 34.1839 31.1713 33.8881 31.1713H18.2012Z"></path></svg>