<svg xmlns="http://www.w3.org/2000/svg" style="display:block" width="16" height="17" fill="none"><rect y=".5" width="16" height="16" rx="2" fill="#004664"></rect><path d="M8.75 3.75a2.875 2.875 0 0 0-2.875 2.875V14.5M8.75 3.75a2.875 2.875 0 0 1 2.875 2.875M11.625 6.625A2.875 2.875 0 0 1 8.75 9.5" stroke="#FFEFD6" stroke-width="2.5"></path><path fill="url('#paint0_linear_612_11432')" d="M7.125 8.25H8.75v2.5H7.125z"></path><path fill="url('#paint1_linear_612_11432')" d="M3 8.25h1.625v2.5H3z"></path><path d="M5.875 6.625A2.875 2.875 0 0 1 3 9.5" stroke="#FFEFD6" stroke-width="2.5"></path><defs><linearGradient id="paint0_linear_612_11432" x1="7.125" y1="9.297" x2="8.75" y2="9.297" gradientUnits="userSpaceOnUse"><stop stop-color="#FFEFD6" stop-opacity=".6"></stop><stop offset="1" stop-color="#FFEFD6"></stop></linearGradient><linearGradient id="paint1_linear_612_11432" x1="3" y1="9.297" x2="4.625" y2="9.297" gradientUnits="userSpaceOnUse"><stop stop-color="#FFEFD6"></stop><stop offset="1" stop-color="#FFEFD6" stop-opacity=".6"></stop></linearGradient></defs></svg>