<svg width="52" height="52" viewBox="0 0 52 52" xmlns="http://www.w3.org/2000/svg" class="styled__BulletIcon-sc-1ofrz6k-1 kKFYKr"><path fill-rule="evenodd" clip-rule="evenodd" d="M25.9999 41.6C17.3842 41.6 10.3998 34.6156 10.3998 25.9999C10.3998 17.3843 17.3842 10.3999 25.9999 10.3999C34.6155 10.3999 41.5999 17.3843 41.5999 25.9999C41.5999 28.7727 40.8765 31.3765 39.6081 33.633L41.5999 41.6L33.6328 39.6083C31.3764 40.8766 28.7726 41.6 25.9999 41.6ZM28.0798 25.9998C28.0798 27.1485 27.1485 28.0798 25.9998 28.0798C24.851 28.0798 23.9198 27.1485 23.9198 25.9998C23.9198 24.851 24.851 23.9198 25.9998 23.9198C27.1485 23.9198 28.0798 24.851 28.0798 25.9998ZM21.8397 25.9998C21.8397 27.1486 20.9085 28.0798 19.7597 28.0798C18.611 28.0798 17.6797 27.1486 17.6797 25.9998C17.6797 24.8511 18.611 23.9198 19.7597 23.9198C20.9085 23.9198 21.8397 24.8511 21.8397 25.9998ZM32.2398 28.0798C33.3886 28.0798 34.3198 27.1485 34.3198 25.9998C34.3198 24.851 33.3886 23.9198 32.2398 23.9198C31.0911 23.9198 30.1598 24.851 30.1598 25.9998C30.1598 27.1485 31.0911 28.0798 32.2398 28.0798Z"></path></svg>