<svg width="13" height="14" viewBox="0 0 13 14" fill="none" xmlns="http://www.w3.org/2000/svg" class="styled__StyledAndroidIcon-sc-1hu83l0-2 gqxjYB"><path fill-rule="evenodd" clip-rule="evenodd" d="M9.00902 9.24981L7.21206 7.45285L1.39832 13.2666C1.5831 13.3254 1.79297 13.3132 1.98519 13.2049L9.00902 9.24981ZM9.61218 8.91017L11.7432 7.71021C12.2444 7.42795 12.248 6.70741 11.7495 6.42025L9.52571 5.13919L7.68346 6.98144L9.61218 8.91017ZM8.92751 4.79458L1.99151 0.798926C1.80771 0.693046 1.60694 0.675764 1.42715 0.725133L7.21206 6.51004L8.92751 4.79458ZM0.929233 1.17003L6.74065 6.98144L0.919204 12.8029C0.893091 12.7273 0.878723 12.6452 0.878723 12.5582V1.4421C0.878723 1.34444 0.896795 1.25303 0.929233 1.17003Z"></path></svg>