<svg width="52" height="52" viewBox="0 0 52 52" fill="none" xmlns="http://www.w3.org/2000/svg" class="styled__BulletIcon-sc-1ofrz6k-1 iSQORf"><path d="M26 38H35C36.6569 38 38 36.6569 38 35V29" stroke-width="2" stroke-linecap="round"></path><path d="M15 27V22.1304V22C15 15.9249 19.9249 11 26 11V11C32.0751 11 37 15.9249 37 22V22.1304V27" stroke-width="2"></path><path d="M10 27C10 30.3137 12.6863 33 16 33V21C12.6863 21 10 23.6863 10 27Z"></path><path d="M42 27C42 30.3137 39.3137 33 36 33V21C39.3137 21 42 23.6863 42 27Z"></path><rect x="21" y="35" width="12" height="6" rx="3"></rect></svg>