<svg width="13" height="16" viewBox="0 0 13 16" xmlns="http://www.w3.org/2000/svg" class="styled__StyledAppleIcon-sc-1hu83l0-1 kawPYw"><path d="M10.9014 8.39043C10.9087 7.82509 11.0589 7.27077 11.338 6.77906C11.617 6.28735 12.016 5.87422 12.4976 5.57811C12.1916 5.14112 11.788 4.78149 11.3187 4.5278C10.8494 4.2741 10.3275 4.13332 9.79426 4.11664C8.65685 3.99725 7.55419 4.79724 6.97459 4.79724C6.38377 4.79724 5.49139 4.12849 4.53044 4.14826C3.90886 4.16835 3.30309 4.34909 2.77215 4.6729C2.2412 4.9967 1.80319 5.45252 1.50078 5.99594C0.190819 8.26393 1.16793 11.5971 2.42277 13.4304C3.05059 14.3281 3.78433 15.3309 4.74441 15.2953C5.68391 15.2563 6.0348 14.6962 7.16886 14.6962C8.29239 14.6962 8.62159 15.2953 9.60116 15.2727C10.6093 15.2563 11.2445 14.371 11.8502 13.4648C12.3013 12.8251 12.6484 12.1182 12.8787 11.3701C12.293 11.1224 11.7932 10.7078 11.4416 10.1779C11.09 9.64802 10.9021 9.02636 10.9014 8.39043Z"></path><path d="M9.05136 3.06792C9.60103 2.40806 9.87183 1.55992 9.80626 0.703613C8.96648 0.791816 8.19076 1.19318 7.63366 1.82772C7.36127 2.13771 7.15266 2.49835 7.01973 2.88901C6.88681 3.27968 6.83219 3.69271 6.85899 4.1045C7.27903 4.10883 7.69457 4.01778 8.07433 3.83823C8.45408 3.65868 8.78815 3.3953 9.05136 3.06792Z"></path></svg>