<svg xmlns="http://www.w3.org/2000/svg" viewBox="0 0 473 76"><path d="M20.3 38c0 8.3 5.6 15.3 13.3 17.4V76C14.7 73.6 0 57.4 0 38 0 18.5 14.7 2.3 33.6 0v20.6C26 22.7 20.3 29.7 20.3 38zM104 0v20.6c7.6 2.1 13.3 9.1 13.3 17.4s-5.6 15.3-13.3 17.4V76c18.9-2.3 33.6-18.5 33.6-38-.1-19.5-14.8-35.6-33.6-38zM68.7 55.9c9.9 0 18-8.1 18-18s-8.1-18-18-18-18 8.1-18 18c0 10 8.1 18 18 18zM162.6 38c0-15.4 11.1-27.1 26.5-27.1 16.2 0 23.1 10.9 24.5 17h-10.2c-1.6-2.7-5.8-7.9-14.3-7.9-9.8 0-16.2 8.2-16.2 18s6.4 18 16.2 18c9.1 0 13.1-5.2 14.4-8h10.1c-1.2 5.5-7.6 17.1-24.5 17.1-15.4-.1-26.5-11.8-26.5-27.1zm61.6 26.2h10V11.8h-10v52.4zm19.6-43.5h17.7v43.5h9.9V20.7H289v-8.9h-45.2v8.9zm54.8 43.5h10V11.8h-10v52.4zm64-8.8h-28.4l29-38v-5.7h-42.6v8.8h28.1l-28.7 38v5.7h42.7v-8.8h-.1zm11.9 8.8h39.2v-8.8h-29.4V40.9h23.3v-8.6h-23.3v-12h29.3v-8.6h-39.1v52.5zm97.8-52.4h-9.5v36l-26.3-36H425v52.4h9.6v-39l28.3 39.3h9.3V11.8h.1z" fill="#fff"/></svg>